<svg width="28" height="25" viewBox="0 0 28 25" fill="none" xmlns="http://www.w3.org/2000/svg">
<path d="M0.196717 22.6882L12.4784 0.815544C12.6167 0.568713 12.8207 0.362731 13.0689 0.219229C13.3171 0.0757273 13.6003 0 13.8889 0C14.1775 0 14.4607 0.0757273 14.7089 0.219229C14.9571 0.362731 15.161 0.568713 15.2994 0.815544L27.5811 22.6882C27.7148 22.9264 27.7825 23.1944 27.7775 23.4659C27.7725 23.7374 27.695 24.0029 27.5526 24.2363C27.4103 24.4697 27.2079 24.6628 26.9655 24.7968C26.7232 24.9307 26.4492 25.0007 26.1706 25H1.60718C1.32858 25.0007 1.05459 24.9307 0.81223 24.7968C0.569874 24.6628 0.367524 24.4697 0.225136 24.2363C0.0827479 24.0029 0.00523997 23.7374 0.00025649 23.4659C-0.00472699 23.1944 0.0629861 22.9264 0.196717 22.6882ZM15.5985 14.5823L16.4598 9.54627C16.4852 9.39715 16.477 9.24443 16.4358 9.0987C16.3946 8.95298 16.3213 8.81775 16.221 8.7024C16.1208 8.58706 15.996 8.49437 15.8553 8.43078C15.7145 8.36718 15.5613 8.3342 15.4062 8.33413H12.3716C12.2165 8.3342 12.0632 8.36718 11.9225 8.43078C11.7818 8.49437 11.657 8.58706 11.5567 8.7024C11.4565 8.81775 11.3832 8.95298 11.342 9.0987C11.3007 9.24443 11.2926 9.39715 11.318 9.54627L12.1792 14.5823H15.5985ZM16.2397 18.5394C16.2397 17.9318 15.992 17.3491 15.5511 16.9195C15.1103 16.4898 14.5124 16.2484 13.8889 16.2484C13.2654 16.2484 12.6675 16.4898 12.2266 16.9195C11.7858 17.3491 11.5381 17.9318 11.5381 18.5394C11.5381 19.147 11.7858 19.7297 12.2266 20.1594C12.6675 20.589 13.2654 20.8304 13.8889 20.8304C14.5124 20.8304 15.1103 20.589 15.5511 20.1594C15.992 19.7297 16.2397 19.147 16.2397 18.5394Z" fill="#DA9E94"/>
</svg>
