<svg width="35" height="47" viewBox="0 0 35 47" fill="none" xmlns="http://www.w3.org/2000/svg">
<path d="M32.0232 41.0308C30.2328 43.9381 28.3346 46.7751 25.4441 46.822C22.5536 46.8923 21.6261 44.9697 18.3473 44.9697C15.047 44.9697 14.0331 46.7751 11.2936 46.8923C8.46784 47.0095 6.33232 43.7974 4.52037 40.9604C0.831751 35.1692 -1.99403 24.5012 1.80244 17.3267C3.6791 13.7629 7.04416 11.5121 10.6896 11.4417C13.4507 11.3948 16.0824 13.4815 17.7865 13.4815C19.469 13.4815 22.6615 10.9728 26.005 11.3479C27.4071 11.4183 31.333 11.9575 33.8567 15.9903C33.6626 16.131 29.1759 18.9914 29.219 24.9233C29.2837 32.004 34.9353 34.3721 35 34.3955C34.9353 34.5596 34.094 37.7718 32.0232 41.0308ZM19.7063 3.51692C21.2809 1.57089 23.891 0.0937846 26.0481 0C26.3285 2.7432 25.3147 5.50985 23.8047 7.47932C22.3163 9.47225 19.8573 11.0197 17.4413 10.8087C17.1178 8.11237 18.3257 5.29883 19.7063 3.51692Z" fill="#222222"/>
</svg>
