<svg width="23" height="25" viewBox="0 0 23 25" fill="none" xmlns="http://www.w3.org/2000/svg">
<path d="M2.53437 25C1.83742 25 1.24057 24.7278 0.743838 24.1833C0.247102 23.6389 -0.000842636 22.9852 2.15141e-06 22.2222V2.77778C2.15141e-06 2.01389 0.24837 1.35972 0.745105 0.81528C1.24184 0.270835 1.83826 -0.000923568 2.53437 2.35805e-06H20.2749C20.9719 2.35805e-06 21.5687 0.272225 22.0654 0.816669C22.5622 1.36111 22.8101 2.01482 22.8093 2.77778V22.2222C22.8093 22.9861 22.5609 23.6403 22.0642 24.1847C21.5674 24.7292 20.971 25.0009 20.2749 25H2.53437ZM2.53437 22.2222H20.2749V2.77778H2.53437V22.2222Z" fill="#AAAEB2"/>
</svg>
