<svg width="23" height="25" viewBox="0 0 23 25" fill="none" xmlns="http://www.w3.org/2000/svg">
<path d="M9.62338 14.4444L6.90097 11.4583C6.66883 11.2037 6.37338 11.0764 6.01461 11.0764C5.65585 11.0764 5.36039 11.2037 5.12825 11.4583C4.89611 11.713 4.78003 12.037 4.78003 12.4306C4.78003 12.8241 4.89611 13.1481 5.12825 13.4028L8.73701 17.3611C8.99026 17.6389 9.28571 17.7778 9.62338 17.7778C9.96104 17.7778 10.2565 17.6389 10.5097 17.3611L17.664 9.51389C17.8961 9.25926 18.0122 8.93519 18.0122 8.54167C18.0122 8.14815 17.8961 7.82407 17.664 7.56945C17.4318 7.31482 17.1364 7.1875 16.7776 7.1875C16.4188 7.1875 16.1234 7.31482 15.8912 7.56945L9.62338 14.4444ZM2.53247 25C1.83604 25 1.23964 24.7278 0.743281 24.1833C0.246918 23.6389 -0.000842006 22.9852 2.1498e-06 22.2222V2.77778C2.1498e-06 2.01389 0.248184 1.35972 0.744547 0.81528C1.24091 0.270835 1.83688 -0.000923568 2.53247 2.35805e-06H20.2597C20.9562 2.35805e-06 21.5526 0.272225 22.0489 0.816669C22.5453 1.36111 22.793 2.01482 22.7922 2.77778V22.2222C22.7922 22.9861 22.544 23.6403 22.0477 24.1847C21.5513 24.7292 20.9553 25.0009 20.2597 25H2.53247Z" fill="#AAAEB2"/>
</svg>
