<svg width="34" height="25" viewBox="0 0 34 25" fill="none" xmlns="http://www.w3.org/2000/svg">
<path d="M10.9013 18.0029L28.8924 0.801748C29.4514 0.267249 30.1629 0 31.0269 0C31.8909 0 32.6024 0.267249 33.1614 0.801748C33.7205 1.33625 34 2.01652 34 2.84256C34 3.66861 33.7205 4.34888 33.1614 4.88338L13.0359 24.1254C12.426 24.7085 11.7145 25 10.9013 25C10.0882 25 9.37668 24.7085 8.76682 24.1254L0.838564 16.5452C0.27952 16.0107 0 15.3304 0 14.5044C0 13.6783 0.27952 12.9981 0.838564 12.4636C1.39761 11.9291 2.10912 11.6618 2.97309 11.6618C3.83707 11.6618 4.54858 11.9291 5.10762 12.4636L10.9013 18.0029Z" fill="#9CBFD5"/>
</svg>
