<svg width="25" height="25" viewBox="0 0 25 25" fill="none" xmlns="http://www.w3.org/2000/svg">
<path d="M23.7014 8.80298L16.1345 1.23603L16.666 0.704471C17.1455 0.225022 17.7396 -0.00969906 18.4483 0.000306824C19.1571 0.0103127 19.7512 0.255457 20.2306 0.735739L24.2643 4.76936C24.7437 5.24881 24.9834 5.8379 24.9834 6.53665C24.9834 7.23539 24.7437 7.82407 24.2643 8.30269L23.7014 8.80298ZM8.28612 24.2808C7.80667 24.7603 7.21758 25 6.51883 25C5.82009 25 5.23183 24.7603 4.75404 24.2808L0.719172 20.2472C0.239724 19.7678 0 19.1787 0 18.4799C0 17.7812 0.239724 17.1925 0.719172 16.7139L1.21947 16.2136L8.78641 23.7805L8.28612 24.2808ZM12.82 23.4053C12.5699 23.6555 12.278 23.7805 11.9445 23.7805C11.611 23.7805 11.3192 23.6555 11.069 23.4053L1.59469 13.931C1.34454 13.6808 1.21947 13.389 1.21947 13.0555C1.21947 12.722 1.34454 12.4301 1.59469 12.18L3.37698 10.3664C3.62713 10.1163 3.92439 9.99118 4.26876 9.99118C4.61313 9.99118 4.90997 10.1163 5.15928 10.3664L7.12919 12.3363L12.3197 7.14576L10.3498 5.17585C10.0997 4.9257 9.97461 4.63386 9.97461 4.30033C9.97461 3.96681 10.0997 3.67497 10.3498 3.42482L12.1321 1.61125C12.3823 1.36111 12.6795 1.23603 13.0239 1.23603C13.3683 1.23603 13.6651 1.36111 13.9144 1.61125L23.3887 11.0856C23.6389 11.3357 23.764 11.633 23.764 11.9773C23.764 12.3217 23.6389 12.6186 23.3887 12.8679L21.5752 14.6502C21.325 14.9003 21.0332 15.0254 20.6997 15.0254C20.3661 15.0254 20.0743 14.9003 19.8242 14.6502L17.8542 12.6803L12.6637 17.8708L14.6336 19.8407C14.8837 20.0909 15.0088 20.3877 15.0088 20.7312C15.0088 21.0748 14.8837 21.372 14.6336 21.623L12.82 23.4053Z" fill="black"/>
</svg>
