<svg width="35" height="29" viewBox="0 0 35 29" fill="none" xmlns="http://www.w3.org/2000/svg">
<path d="M7.95458 28.1446V13.6495L3.76073 9.5369L0 7.2547V25.5866C0 27.0019 1.06983 28.1446 2.38643 28.1446H7.95458Z" fill="#4285F4"/>
<path d="M27.0454 28.1446H32.6136C33.9341 28.1446 35 26.9977 35 25.5866V7.25488L30.7404 9.86886L27.0454 13.6495V28.1446Z" fill="#34A853"/>
<path d="M7.95455 13.6495L7.38388 7.98586L7.95455 2.56519L17.5 10.239L27.0454 2.56519L27.6838 7.6932L27.0454 13.6495L17.5 21.3234L7.95455 13.6495Z" fill="#EA4335"/>
<path d="M27.0454 2.56514V13.6495L35 7.25468V3.84406C35 0.680818 31.6313 -1.12246 29.2729 0.774609L27.0454 2.56514Z" fill="#FBBC04"/>
<path d="M0 7.25475L3.65846 10.196L7.95458 13.6495V2.5652L5.72715 0.774676C3.36465 -1.12254 0 0.680885 0 3.84398V7.2546V7.25475Z" fill="#C5221F"/>
</svg>
