<?xml version="1.0" encoding="UTF-8"?><svg xmlns="http://www.w3.org/2000/svg" viewBox="0 0 234.2 113.4"><defs><style>.c{fill:#222;}.c,.d{stroke:#fff;stroke-miterlimit:10;}.e,.d{fill:#fff;}</style></defs><g id="a"/><g id="b"><g><path class="e" d="M48.03,40.68v-15.3h-14.34v15.3h-12.12V.66h12.12V14.82h14.34V.66h12.12V40.68h-12.12Z"/><path class="e" d="M64.47,20.7c0-12.3,9.54-20.7,21.9-20.7s21.9,8.4,21.9,20.7-9.54,20.7-21.9,20.7-21.9-8.4-21.9-20.7Zm31.5,0c0-5.58-3.78-10.02-9.6-10.02s-9.6,4.44-9.6,10.02,3.78,10.02,9.6,10.02,9.6-4.44,9.6-10.02Z"/><path class="e" d="M147.99,40.68V16.62l-8.94,24.06h-5.4l-8.94-24.06v24.06h-12.12V.66h16.74l7.02,19.2L143.37,.66h16.74V40.68h-12.12Z"/><path class="e" d="M166.59,40.68V.66h30.36V11.22h-18.24v3.96h17.82v10.56h-17.82v4.38h18.24v10.56h-30.36Z"/><path class="e" d="M31.02,112.68l-1.44-4.68H15.18l-1.44,4.68H0l14.76-40.02h15.24l14.76,40.02h-13.74Zm-8.64-28.14l-3.96,12.9h7.92l-3.96-12.9Z"/><path class="e" d="M42.96,92.7c0-12.36,9.48-20.7,22.02-20.7,10.5,0,15.78,6.12,18.18,11.64l-10.44,4.86c-1.02-3.12-4.14-5.82-7.74-5.82-5.82,0-9.72,4.44-9.72,10.02s3.9,10.02,9.72,10.02c3.6,0,6.72-2.7,7.74-5.82l10.44,4.8c-2.34,5.34-7.68,11.7-18.18,11.7-12.54,0-22.02-8.4-22.02-20.7Z"/><path class="e" d="M122.64,112.68v-40.02h12.12v40.02h-12.12Z"/><path class="e" d="M95.49,112.68v-40.02h12.12v40.02h-12.12Z"/><path class="e" d="M151.68,112.68l-14.76-40.02h13.74l8.64,26.94,8.64-26.94h13.74l-14.76,40.02h-15.24Z"/><path class="e" d="M183.84,112.68v-40.02h12.12v14.52h17.82v10.56h-17.82v4.38h18.24v10.56h-30.36Z"/><path class="e" d="M196.94,.66l5.91,10.24c.08,.13-.02,.3-.17,.3h-5.74V.66Z"/><path class="e" d="M196.94,30.12h5.74c.11,0,.2,.09,.2,.2v10.13c0,.11-.09,.2-.2,.2h-5.74v-10.53h0Z"/><path class="d" d="M224.19,77.73l-3.68,3.68c-10.06-4.93-38.06-8.47-71.02-8.47s-60.02,3.42-70.5,8.23l-3.72-3.72c4.23-2.34,10.9-4.2,20.37-5.78,14.43-2.41,33.55-3.73,53.85-3.73s39.43,1.32,53.86,3.73c9.84,1.64,16.65,3.58,20.84,6.06Z"/><g><polygon class="e" points="230.55 75.65 223.13 83.07 219.94 86.26 217.8 84.12 220.51 81.41 224.19 77.73 228.41 73.51 230.55 75.65"/><rect class="e" x="225.79" y="78.15" width="5" height="11.7" transform="translate(126.27 -136.82) rotate(45)"/></g><g><polygon class="c" points="81.94 84.12 79.8 86.26 72.71 79.17 69.2 75.65 71.33 73.51 75.27 77.45 78.99 81.17 81.94 84.12"/><rect class="c" x="68.95" y="78.15" width="5" height="11.7" transform="translate(181.37 92.89) rotate(135)"/></g><path class="e" d="M21.56,.66L7.39,25.2c-.08,.13,.02,.3,.17,.3h6.62c.11,0,.2,.09,.2,.2v14.75c0,.11,.09,.2,.2,.2h6.97V.66Z"/></g></g></svg>