<svg width="40" height="40" viewBox="0 0 40 40" fill="none" xmlns="http://www.w3.org/2000/svg">
<path d="M22.1565 3.65024e-06C22.7445 3.65024e-06 23.2705 0.365999 23.4685 0.913993L24.8804 4.82795C25.3864 4.95394 25.8204 5.07994 26.1884 5.21194C26.5904 5.35594 27.1084 5.57394 27.7484 5.87193L31.0364 4.13195C31.3047 3.98977 31.612 3.93845 31.912 3.98568C32.212 4.03292 32.4886 4.17618 32.7003 4.39395L35.5923 7.38391C35.9763 7.78191 36.0843 8.3639 35.8683 8.8719L34.3263 12.4859C34.5823 12.9558 34.7863 13.3578 34.9423 13.6938C35.1103 14.0598 35.3183 14.5638 35.5663 15.2138L39.1603 16.7538C39.7003 16.9838 40.0343 17.5238 39.9983 18.1018L39.7343 22.2517C39.7162 22.5213 39.6194 22.7797 39.4559 22.9948C39.2923 23.2099 39.0692 23.3723 38.8143 23.4617L35.4103 24.6717C35.3123 25.1417 35.2103 25.5437 35.1023 25.8837C34.9281 26.4088 34.7292 26.9253 34.5063 27.4317L36.2163 31.2116C36.337 31.4772 36.3695 31.7745 36.309 32.0598C36.2486 32.3452 36.0983 32.6038 35.8803 32.7976L32.6283 35.7016C32.4142 35.892 32.1469 36.0125 31.8624 36.0468C31.5779 36.0811 31.2897 36.0276 31.0364 35.8936L27.6844 34.1176C27.16 34.3953 26.619 34.6404 26.0644 34.8516L24.6004 35.3996L23.3005 38.9995C23.2041 39.2632 23.0303 39.4915 22.8019 39.6546C22.5735 39.8177 22.3011 39.908 22.0205 39.9135L18.2205 39.9995C17.9324 40.0071 17.6491 39.9252 17.4095 39.7651C17.1699 39.605 16.9858 39.3746 16.8825 39.1055L15.3505 35.0516C14.8279 34.8729 14.3103 34.6795 13.7986 34.4716C13.38 34.2904 12.9678 34.095 12.5626 33.8856L8.76263 35.5096C8.51225 35.6164 8.23621 35.6481 7.96812 35.6009C7.70003 35.5537 7.45146 35.4295 7.25265 35.2436L4.44068 32.6056C4.23133 32.4101 4.08875 32.1536 4.03312 31.8726C3.97749 31.5916 4.01162 31.3002 4.13068 31.0396L5.76466 27.4797C5.54735 27.058 5.34588 26.6284 5.16067 26.1917C4.94448 25.6572 4.74439 25.1163 4.56068 24.5697L0.980723 23.4797C0.689728 23.3918 0.435918 23.2102 0.258711 22.9632C0.0815043 22.7162 -0.00918249 22.4176 0.000734929 22.1137L0.140733 18.2718C0.150698 18.0211 0.229006 17.7779 0.367186 17.5685C0.505367 17.3592 0.698163 17.1915 0.924724 17.0838L4.68068 15.2798C4.85468 14.6418 5.00667 14.1458 5.14067 13.7838C5.32935 13.3003 5.53888 12.8252 5.76867 12.3599L4.14068 8.9199C4.01714 8.65866 3.97962 8.36498 4.03353 8.08108C4.08743 7.79718 4.22998 7.53768 4.44068 7.33992L7.24865 4.68795C7.44549 4.50229 7.69178 4.37748 7.95789 4.32851C8.22401 4.27955 8.4986 4.30852 8.74863 4.41195L12.5446 5.97993C12.9646 5.69993 13.3446 5.47394 13.6886 5.29194C14.0986 5.07394 14.6466 4.84595 15.3366 4.59995L16.6565 0.917993C16.7541 0.648533 16.9325 0.415761 17.1673 0.251463C17.4021 0.0871643 17.6819 -0.000652494 17.9685 3.65024e-06H22.1565ZM20.0485 14.0378C16.7145 14.0378 14.0126 16.7078 14.0126 20.0038C14.0126 23.2997 16.7145 25.9717 20.0485 25.9717C23.3805 25.9717 26.0824 23.2997 26.0824 20.0038C26.0824 16.7078 23.3825 14.0378 20.0485 14.0378Z" fill="#222222"/>
</svg>
